<svg width="42" height="42" viewBox="0 0 42 42" fill="none" xmlns="http://www.w3.org/2000/svg">
<path d="M22.9185 29.169V12.501H27.0855V29.169H22.9185ZM14.5845 29.169V12.501H18.7515V29.169H14.5845ZM20.835 0C23.5711 0 26.2804 0.538913 28.8082 1.58597C31.336 2.63303 33.6329 4.16772 35.5676 6.10243C37.5023 8.03714 39.037 10.334 40.084 12.8618C41.1311 15.3896 41.67 18.0989 41.67 20.835C41.67 26.3608 39.4749 31.6602 35.5676 35.5676C31.6602 39.4749 26.3608 41.67 20.835 41.67C18.0989 41.67 15.3896 41.1311 12.8618 40.084C10.334 39.037 8.03714 37.5023 6.10243 35.5676C2.19511 31.6602 0 26.3608 0 20.835C0 15.3092 2.19511 10.0098 6.10243 6.10243C10.0098 2.19511 15.3092 0 20.835 0ZM20.835 4.167C16.4144 4.167 12.1748 5.92309 9.04894 9.04894C5.92309 12.1748 4.167 16.4144 4.167 20.835C4.167 25.2556 5.92309 29.4952 9.04894 32.6211C12.1748 35.7469 16.4144 37.503 20.835 37.503C25.2556 37.503 29.4952 35.7469 32.6211 32.6211C35.7469 29.4952 37.503 25.2556 37.503 20.835C37.503 16.4144 35.7469 12.1748 32.6211 9.04894C29.4952 5.92309 25.2556 4.167 20.835 4.167Z" fill="#072AC8"/>
</svg>
